# xmcd CD database file
#
# Track frame offsets:
#	150
#	16724
#	33664
#	48717
#	64275
#	80669
#	95347
#	114950
#	130609
#	145377
#	162242
#
# Disc length: 2429 seconds
#
# Revision: 2
# Processed by: cddbd v1.5.2PL0 Copyright (c) Steve Scherf et al.
# Submitted via: CDex 1.79
#
DISCID=90097b0b
DTITLE=Eli Young Band - 10,000 Towns
DYEAR=2013
DGENRE=Country
TTITLE0=Drunk Last Night
TTITLE1=10,000 Towns
TTITLE2=Dust
TTITLE3=Angel Like You
TTITLE4=Let's Do Something Tonight
TTITLE5=Your Last Broken Heart
TTITLE6=What Does
TTITLE7=A Lot Like Love
TTITLE8=Just Add Moonlight
TTITLE9=Revelations
TTITLE10=Prayer For The Road
EXTD=YEAR: 2013
EXTT0=
EXTT1=
EXTT2=
EXTT3=
EXTT4=
EXTT5=
EXTT6=
EXTT7=
EXTT8=
EXTT9=
EXTT10=
PLAYORDER=
